<svg width="25" height="24" viewBox="0 0 25 24" fill="none" xmlns="http://www.w3.org/2000/svg">
<path d="M17.7017 22.75C16.5717 22.75 15.3817 22.48 14.1517 21.96C12.9517 21.45 11.7417 20.75 10.5617 19.9C9.39171 19.04 8.26171 18.08 7.19171 17.03C6.13171 15.96 5.17171 14.83 4.32171 13.67C3.46171 12.47 2.77171 11.27 2.28171 10.11C1.76171 8.87 1.50171 7.67 1.50171 6.54C1.50171 5.76 1.64171 5.02 1.91171 4.33C2.19171 3.62 2.64171 2.96 3.25171 2.39C4.02171 1.63 4.90171 1.25 5.84171 1.25C6.23171 1.25 6.63171 1.34 6.97171 1.5C7.36171 1.68 7.69171 1.95 7.93171 2.31L10.2517 5.58C10.4617 5.87 10.6217 6.15 10.7317 6.43C10.8617 6.73 10.9317 7.03 10.9317 7.32C10.9317 7.7 10.8217 8.07 10.6117 8.42C10.4617 8.69 10.2317 8.98 9.94171 9.27L9.26171 9.98C9.27171 10.01 9.28171 10.03 9.29171 10.05C9.41171 10.26 9.65171 10.62 10.1117 11.16C10.6017 11.72 11.0617 12.23 11.5217 12.7C12.1117 13.28 12.6017 13.74 13.0617 14.12C13.6317 14.6 14.0017 14.84 14.2217 14.95L14.2017 15L14.9317 14.28C15.2417 13.97 15.5417 13.74 15.8317 13.59C16.3817 13.25 17.0817 13.19 17.7817 13.48C18.0417 13.59 18.3217 13.74 18.6217 13.95L21.9417 16.31C22.3117 16.56 22.5817 16.88 22.7417 17.26C22.8917 17.64 22.9617 17.99 22.9617 18.34C22.9617 18.82 22.8517 19.3 22.6417 19.75C22.4317 20.2 22.1717 20.59 21.8417 20.95C21.2717 21.58 20.6517 22.03 19.9317 22.32C19.2417 22.6 18.4917 22.75 17.7017 22.75ZM5.84171 2.75C5.29171 2.75 4.78171 2.99 4.29171 3.47C3.83171 3.9 3.51171 4.37 3.31171 4.88C3.10171 5.4 3.00171 5.95 3.00171 6.54C3.00171 7.47 3.22171 8.48 3.66171 9.52C4.11171 10.58 4.74171 11.68 5.54171 12.78C6.34171 13.88 7.25171 14.95 8.25171 15.96C9.25171 16.95 10.3317 17.87 11.4417 18.68C12.5217 19.47 13.6317 20.11 14.7317 20.57C16.4417 21.3 18.0417 21.47 19.3617 20.92C19.8717 20.71 20.3217 20.39 20.7317 19.93C20.9617 19.68 21.1417 19.41 21.2917 19.09C21.4117 18.84 21.4717 18.58 21.4717 18.32C21.4717 18.16 21.4417 18 21.3617 17.82C21.3317 17.76 21.2717 17.65 21.0817 17.52L17.7617 15.16C17.5617 15.02 17.3817 14.92 17.2117 14.85C16.9917 14.76 16.9017 14.67 16.5617 14.88C16.3617 14.98 16.1817 15.13 15.9817 15.33L15.2217 16.08C14.8317 16.46 14.2317 16.55 13.7717 16.38L13.5017 16.26C13.0917 16.04 12.6117 15.7 12.0817 15.25C11.6017 14.84 11.0817 14.36 10.4517 13.74C9.96171 13.24 9.47171 12.71 8.96171 12.12C8.49171 11.57 8.15171 11.1 7.94171 10.71L7.82171 10.41C7.76171 10.18 7.74171 10.05 7.74171 9.91C7.74171 9.55 7.87171 9.23 8.12171 8.98L8.87171 8.2C9.07171 8 9.22171 7.81 9.32171 7.64C9.40171 7.51 9.43171 7.4 9.43171 7.3C9.43171 7.22 9.40171 7.1 9.35171 6.98C9.28171 6.82 9.17171 6.64 9.03171 6.45L6.71171 3.17C6.61171 3.03 6.49171 2.93 6.34171 2.86C6.18171 2.79 6.01171 2.75 5.84171 2.75ZM14.2017 15.01L14.0417 15.69L14.3117 14.99C14.2617 14.98 14.2217 14.99 14.2017 15.01Z" fill="#8EA6B2"/>
</svg>
