<svg width="25" height="24" viewBox="0 0 25 24" fill="none" xmlns="http://www.w3.org/2000/svg">
<g clip-path="url(#clip0_86_29431)">
<path d="M12.2517 2C8.38171 2 5.25171 5.13 5.25171 9C5.25171 14.25 12.2517 22 12.2517 22C12.2517 22 19.2517 14.25 19.2517 9C19.2517 5.13 16.1217 2 12.2517 2ZM7.25171 9C7.25171 6.24 9.49171 4 12.2517 4C15.0117 4 17.2517 6.24 17.2517 9C17.2517 11.88 14.3717 16.19 12.2517 18.88C10.1717 16.21 7.25171 11.85 7.25171 9Z" fill="#8EA6B2"/>
<path d="M12.2517 11.5C13.6324 11.5 14.7517 10.3807 14.7517 9C14.7517 7.61929 13.6324 6.5 12.2517 6.5C10.871 6.5 9.75171 7.61929 9.75171 9C9.75171 10.3807 10.871 11.5 12.2517 11.5Z" fill="#8EA6B2"/>
</g>
<defs>
<clipPath id="clip0_86_29431">
<rect width="24" height="24" fill="white" transform="translate(0.251709)"/>
</clipPath>
</defs>
</svg>
