<svg width="101" height="100" viewBox="0 0 101 100" fill="none" xmlns="http://www.w3.org/2000/svg">
<path d="M50.4993 94.7919C49.4993 94.7919 48.4993 94.667 47.541 94.3754C25.916 88.417 10.2493 68.2085 10.2493 46.2919V28.0002C10.2493 23.3335 13.6243 18.292 17.9576 16.5004L41.166 7.00024C47.2077 4.54191 53.8326 4.54191 59.8326 7.00024L83.0409 16.5004C87.3743 18.292 90.7493 23.3335 90.7493 28.0002V46.2919C90.7493 68.1669 75.0409 88.3754 53.4576 94.3754C52.4992 94.667 51.4993 94.7919 50.4993 94.7919ZM50.4993 11.4586C48.1243 11.4586 45.7909 11.917 43.5409 12.8337L20.3327 22.3335C18.3327 23.1669 16.4993 25.8752 16.4993 28.0419V46.3336C16.4993 65.4586 30.2493 83.1254 49.2076 88.3754C50.041 88.6254 50.9576 88.6254 51.7909 88.3754C70.7493 83.1254 84.4993 65.4586 84.4993 46.3336V28.0419C84.4993 25.8752 82.6659 23.1669 80.6659 22.3335L57.4577 12.8337C55.2077 11.917 52.8743 11.4586 50.4993 11.4586Z" fill="url(#paint0_linear_421_446)"/>
<path d="M50.5001 55.2084C44.1667 55.2084 39.0417 50.0834 39.0417 43.7501C39.0417 37.4167 44.1667 32.2917 50.5001 32.2917C56.8334 32.2917 61.9584 37.4167 61.9584 43.7501C61.9584 50.0834 56.8334 55.2084 50.5001 55.2084ZM50.5001 38.5417C47.6251 38.5417 45.2917 40.8751 45.2917 43.7501C45.2917 46.6251 47.6251 48.9584 50.5001 48.9584C53.3751 48.9584 55.7084 46.6251 55.7084 43.7501C55.7084 40.8751 53.3751 38.5417 50.5001 38.5417Z" fill="url(#paint1_linear_421_446)"/>
<path d="M50.5 67.7083C48.7917 67.7083 47.375 66.2916 47.375 64.5833V52.0833C47.375 50.3749 48.7917 48.9583 50.5 48.9583C52.2083 48.9583 53.625 50.3749 53.625 52.0833V64.5833C53.625 66.2916 52.2083 67.7083 50.5 67.7083Z" fill="url(#paint2_linear_421_446)"/>
<defs>
<linearGradient id="paint0_linear_421_446" x1="10.2493" y1="5.15649" x2="99.0128" y2="14.2652" gradientUnits="userSpaceOnUse">
<stop stop-color="#0000FF"/>
<stop offset="0.411458" stop-color="#0B65F6"/>
<stop offset="1" stop-color="#16BAEE"/>
</linearGradient>
<linearGradient id="paint1_linear_421_446" x1="39.0417" y1="32.2917" x2="64.2478" y2="35.1719" gradientUnits="userSpaceOnUse">
<stop stop-color="#0000FF"/>
<stop offset="0.411458" stop-color="#0B65F6"/>
<stop offset="1" stop-color="#16BAEE"/>
</linearGradient>
<linearGradient id="paint2_linear_421_446" x1="47.375" y1="48.9583" x2="54.3291" y2="49.2231" gradientUnits="userSpaceOnUse">
<stop stop-color="#0000FF"/>
<stop offset="0.411458" stop-color="#0B65F6"/>
<stop offset="1" stop-color="#16BAEE"/>
</linearGradient>
</defs>
</svg>
