<svg width="101" height="100" viewBox="0 0 101 100" fill="none" xmlns="http://www.w3.org/2000/svg">
<path d="M38.665 48.4166C38.54 48.4166 38.4566 48.4166 38.3316 48.4166C38.1233 48.3749 37.8316 48.3749 37.5816 48.4166C25.4983 48.0416 16.3733 38.5416 16.3733 26.8333C16.3733 14.9166 26.0816 5.20825 37.9983 5.20825C49.915 5.20825 59.6233 14.9166 59.6233 26.8333C59.5816 38.5416 50.415 48.0416 38.79 48.4166C38.7483 48.4166 38.7066 48.4166 38.665 48.4166ZM37.9983 11.4583C29.54 11.4583 22.6233 18.3749 22.6233 26.8333C22.6233 35.1666 29.1233 41.8749 37.415 42.1666C37.665 42.1249 38.2066 42.1249 38.7483 42.1666C46.915 41.7916 53.3316 35.0833 53.3733 26.8333C53.3733 18.3749 46.4566 11.4583 37.9983 11.4583Z" fill="url(#paint0_linear_421_627)"/>
<path d="M69.4151 48.9584C69.2901 48.9584 69.1651 48.9584 69.0401 48.9167C67.3318 49.0834 65.5818 47.8751 65.4151 46.1667C65.2485 44.4584 66.2901 42.9167 67.9985 42.7084C68.4985 42.6667 69.0401 42.6667 69.4985 42.6667C75.5818 42.3334 80.3318 37.3334 80.3318 31.2084C80.3318 24.8751 75.2068 19.7501 68.8735 19.7501C67.1651 19.7917 65.7485 18.3751 65.7485 16.6667C65.7485 14.9584 67.1651 13.5417 68.8735 13.5417C78.6235 13.5417 86.5818 21.5001 86.5818 31.2501C86.5818 40.8334 79.0818 48.5834 69.5401 48.9584C69.4985 48.9584 69.4568 48.9584 69.4151 48.9584Z" fill="url(#paint1_linear_421_627)"/>
<path d="M38.7067 93.9584C30.54 93.9584 22.3317 91.8751 16.1234 87.7084C10.3317 83.8751 7.16504 78.6251 7.16504 72.9167C7.16504 67.2084 10.3317 61.9167 16.1234 58.0417C28.6234 49.7501 48.8734 49.7501 61.29 58.0417C67.04 61.8751 70.2484 67.1251 70.2484 72.8334C70.2484 78.5417 67.0817 83.8334 61.29 87.7084C55.04 91.8751 46.8734 93.9584 38.7067 93.9584ZM19.5817 63.2917C15.5817 65.9584 13.415 69.3751 13.415 72.9584C13.415 76.5001 15.6234 79.9167 19.5817 82.5417C29.9567 89.5001 47.4567 89.5001 57.8317 82.5417C61.8317 79.8751 63.9984 76.4584 63.9984 72.8751C63.9984 69.3334 61.79 65.9167 57.8317 63.2917C47.4567 56.3751 29.9567 56.3751 19.5817 63.2917Z" fill="url(#paint2_linear_421_627)"/>
<path d="M76.9152 86.4584C75.4568 86.4584 74.1652 85.4584 73.8735 83.9584C73.5402 82.2501 74.6235 80.6251 76.2902 80.2501C78.9152 79.7084 81.3318 78.6667 83.2068 77.2084C85.5818 75.4167 86.8735 73.1667 86.8735 70.7917C86.8735 68.4167 85.5818 66.1667 83.2485 64.4167C81.4152 63.0001 79.1235 62.0001 76.4151 61.3751C74.7485 61.0001 73.6652 59.3334 74.0402 57.6251C74.4152 55.9584 76.0818 54.8751 77.7901 55.2501C81.3735 56.0417 84.4985 57.4584 87.0402 59.4167C90.9152 62.3334 93.1235 66.4584 93.1235 70.7917C93.1235 75.1251 90.8735 79.2501 86.9985 82.2084C84.4152 84.2084 81.1652 85.6667 77.5818 86.3751C77.3318 86.4584 77.1235 86.4584 76.9152 86.4584Z" fill="url(#paint3_linear_421_627)"/>
<defs>
<linearGradient id="paint0_linear_421_627" x1="16.3733" y1="5.20825" x2="63.9429" y2="10.6489" gradientUnits="userSpaceOnUse">
<stop stop-color="#0000FF"/>
<stop offset="0.411458" stop-color="#0B65F6"/>
<stop offset="1" stop-color="#16BAEE"/>
</linearGradient>
<linearGradient id="paint1_linear_421_627" x1="65.3977" y1="13.5417" x2="88.8926" y2="15.1475" gradientUnits="userSpaceOnUse">
<stop stop-color="#0000FF"/>
<stop offset="0.411458" stop-color="#0B65F6"/>
<stop offset="1" stop-color="#16BAEE"/>
</linearGradient>
<linearGradient id="paint2_linear_421_627" x1="7.16504" y1="51.823" x2="75.4579" y2="63.5058" gradientUnits="userSpaceOnUse">
<stop stop-color="#0000FF"/>
<stop offset="0.411458" stop-color="#0B65F6"/>
<stop offset="1" stop-color="#16BAEE"/>
</linearGradient>
<linearGradient id="paint3_linear_421_627" x1="73.8132" y1="55.1758" x2="95.2234" y2="56.6859" gradientUnits="userSpaceOnUse">
<stop stop-color="#0000FF"/>
<stop offset="0.411458" stop-color="#0B65F6"/>
<stop offset="1" stop-color="#16BAEE"/>
</linearGradient>
</defs>
</svg>
